<?xml version="1.0" encoding="UTF-8"?><svg id="Capa_1" xmlns="http://www.w3.org/2000/svg" viewBox="0 0 251 251"><defs><style>.cls-1{fill:#232323;}</style></defs><path class="cls-1" d="M0,0V251H251V0H0ZM109.66,113.74h-21.62l-2.72,11.83h17.4v19.03h-22.02l-5.57,23.11h-20.53l5.71-23.11h-8.16l-5.57,23.11H26.06l5.71-23.11h-15.23v-19.03h19.85l2.72-11.83h-15.63v-17.67h19.98l6.12-24.88h20.53l-6.25,24.88h8.16l6.12-24.88h20.53l-6.25,24.88h17.27v17.67Zm68.65,41.46c-1.36,2.9-3.33,5.39-5.91,7.48-2.58,2.09-5.71,3.67-9.38,4.76s-7.82,1.63-12.44,1.63c-6.25,0-12.37-1.02-18.35-3.06s-11.06-5.01-15.23-8.9l8.84-15.5c4.44,2.99,8.72,5.3,12.85,6.93,4.12,1.63,7.91,2.45,11.35,2.45,3.62,0,5.44-1.13,5.44-3.4,0-1.27-.7-2.36-2.11-3.26-1.41-.9-4.15-1.95-8.22-3.13-5.08-1.45-9.31-2.88-12.71-4.28-3.4-1.4-6.16-2.92-8.29-4.55-2.13-1.63-3.65-3.44-4.55-5.44-.91-1.99-1.36-4.35-1.36-7.07,0-3.62,.72-6.98,2.18-10.06,1.45-3.08,3.47-5.75,6.05-8.02,2.58-2.26,5.66-4.01,9.24-5.23,3.58-1.22,7.5-1.84,11.76-1.84,5.26,0,10.26,.68,15.02,2.04,4.76,1.36,9.54,4.12,14.34,8.29l-9.79,15.5c-4.44-2.9-8.16-4.96-11.15-6.19-2.99-1.22-5.8-1.83-8.43-1.83-1.54,0-2.81,.29-3.81,.88-1,.59-1.5,1.52-1.5,2.79,0,1.36,.72,2.47,2.18,3.33,1.45,.86,4.3,1.84,8.56,2.92,5.17,1.36,9.52,2.79,13.05,4.28,3.53,1.5,6.37,3.13,8.5,4.89,2.13,1.77,3.65,3.76,4.55,5.98,.91,2.22,1.36,4.78,1.36,7.68,0,3.72-.68,7.02-2.04,9.92Zm48.6,12.44c-4.12,1.04-8.18,1.56-12.17,1.56-2.9,0-5.67-.36-8.29-1.09-2.63-.72-4.92-1.9-6.87-3.53-1.95-1.63-3.49-3.76-4.62-6.39-1.13-2.63-1.7-5.89-1.7-9.79v-32.76h-8.84v-19.44h8.84v-22.43h25.83v22.43h14v19.44h-14v23.65c0,2.36,.5,4.01,1.5,4.96,1,.95,2.36,1.43,4.08,1.43,1.27,0,2.72-.2,4.35-.61s3.26-.97,4.89-1.7l4.62,20.39c-3.63,1.54-7.5,2.83-11.62,3.87Z"/></svg>