<?xml version="1.0" encoding="UTF-8"?><svg id="Capa_1" xmlns="http://www.w3.org/2000/svg" viewBox="0 0 415.24 415.24"><defs><style>.cls-1{fill:#fff;}</style></defs><path class="cls-1" d="M405.18,0H10.06C4.5,0,0,4.5,0,10.06V405.18c0,5.56,4.5,10.06,10.06,10.06H405.18c5.56,0,10.06-4.5,10.06-10.06V10.06c0-5.56-4.5-10.06-10.06-10.06ZM177.73,196.82h-36.15l-4.55,19.78h29.1v31.83h-36.83l-9.32,38.65h-34.33l9.55-38.65h-13.64l-9.32,38.65H37.89l9.55-38.65H21.98v-31.83H55.17l4.55-19.78h-26.15v-29.56h33.42l10.23-41.61h34.33l-10.46,41.61h13.64l10.23-41.61h34.33l-10.46,41.61h28.88v29.56Zm114.82,69.35c-2.27,4.85-5.57,9.02-9.89,12.51-4.32,3.49-9.55,6.14-15.69,7.96-6.14,1.82-13.07,2.73-20.8,2.73-10.46,0-20.69-1.71-30.69-5.12-10-3.41-18.5-8.37-25.47-14.89l14.78-25.92c7.42,5,14.59,8.87,21.49,11.6,6.9,2.73,13.22,4.09,18.99,4.09,6.06,0,9.1-1.89,9.1-5.68,0-2.12-1.18-3.94-3.52-5.46-2.35-1.51-6.93-3.26-13.76-5.23-8.49-2.42-15.57-4.81-21.26-7.16-5.68-2.35-10.31-4.89-13.87-7.62-3.56-2.73-6.1-5.76-7.62-9.09-1.52-3.33-2.27-7.28-2.27-11.82,0-6.06,1.21-11.67,3.64-16.83,2.42-5.15,5.8-9.62,10.12-13.41,4.32-3.79,9.47-6.71,15.46-8.75,5.99-2.05,12.54-3.07,19.67-3.07,8.79,0,17.17,1.14,25.12,3.41,7.96,2.27,15.95,6.9,23.99,13.87l-16.37,25.92c-7.43-4.85-13.64-8.3-18.64-10.34-5-2.05-9.7-3.07-14.1-3.07-2.58,0-4.7,.49-6.37,1.48-1.67,.99-2.5,2.54-2.5,4.66,0,2.27,1.21,4.13,3.64,5.57,2.42,1.44,7.2,3.07,14.32,4.89,8.64,2.27,15.92,4.66,21.83,7.16,5.91,2.5,10.65,5.23,14.21,8.19,3.56,2.96,6.1,6.29,7.62,10,1.51,3.72,2.27,8,2.27,12.85,0,6.22-1.14,11.75-3.41,16.6Zm81.28,20.8c-6.9,1.74-13.68,2.61-20.35,2.61-4.85,0-9.47-.61-13.87-1.82-4.4-1.21-8.22-3.18-11.48-5.91-3.26-2.73-5.84-6.29-7.73-10.69-1.9-4.39-2.84-9.85-2.84-16.37v-54.8h-14.78v-32.51h14.78v-37.52h43.2v37.52h23.42v32.51h-23.42v39.56c0,3.94,.83,6.71,2.5,8.3,1.67,1.59,3.94,2.39,6.82,2.39,2.12,0,4.55-.34,7.28-1.02,2.73-.68,5.46-1.63,8.19-2.84l7.73,34.11c-6.06,2.58-12.54,4.74-19.44,6.48Z"/><polygon class="cls-1" points="89.28 216.6 102.92 216.6 107.47 196.82 93.83 196.82 89.28 216.6"/></svg>